<?xml version="1.0" encoding="UTF-8"?>
<svg id="katman_1" xmlns="http://www.w3.org/2000/svg" xmlns:xlink="http://www.w3.org/1999/xlink" version="1.1" viewBox="0 0 1000 500">
  <!-- Generator: Adobe Illustrator 29.7.1, SVG Export Plug-In . SVG Version: 2.1.1 Build 8)  -->
  <defs>
    <style>
      .st0 {
        fill: url(#Adsız_degrade_124);
      }

      .st1 {
        fill: url(#Adsız_degrade_60);
      }

      .st2 {
        fill: url(#Adsız_degrade_93);
      }

      .st3 {
        fill: url(#Adsız_degrade_99);
      }

      .st4 {
        fill: url(#Adsız_degrade_57);
      }

      .st4, .st5, .st6, .st7, .st8, .st9, .st10, .st11, .st12 {
        stroke-miterlimit: 10;
        stroke-width: 4px;
      }

      .st4, .st9, .st10, .st11 {
        stroke: #fff;
      }

      .st5 {
        fill: url(#Adsız_degrade_52);
        stroke: url(#Adsız_degrade_95);
      }

      .st6 {
        fill: url(#Adsız_degrade_522);
        stroke: url(#Adsız_degrade_952);
      }

      .st7 {
        fill: url(#Adsız_degrade_521);
        stroke: url(#Adsız_degrade_951);
      }

      .st8 {
        stroke: url(#Adsız_degrade_71);
      }

      .st8, .st12 {
        fill: none;
      }

      .st9 {
        fill: url(#Adsız_degrade_523);
      }

      .st10 {
        fill: url(#Adsız_degrade_525);
      }

      .st11 {
        fill: url(#Adsız_degrade_524);
      }

      .st12 {
        stroke: url(#Adsız_degrade_7);
      }
    </style>
    <linearGradient id="Adsız_degrade_52" data-name="Adsız degrade 52" x1="118" y1="267.5" x2="118" y2="150.6" gradientUnits="userSpaceOnUse">
      <stop offset="0" stop-color="#c39532"/>
      <stop offset=".2" stop-color="#fad66f"/>
      <stop offset=".5" stop-color="#c39532"/>
      <stop offset=".8" stop-color="#fad66f"/>
      <stop offset="1" stop-color="#c39532"/>
    </linearGradient>
    <linearGradient id="Adsız_degrade_95" data-name="Adsız degrade 95" x1="118" y1="269.5" x2="118" y2="148.6" gradientUnits="userSpaceOnUse">
      <stop offset="0" stop-color="#c69835"/>
      <stop offset="1" stop-color="#f9d56e"/>
    </linearGradient>
    <linearGradient id="Adsız_degrade_521" data-name="Adsız degrade 52" x1="227.9" x2="227.9" xlink:href="#Adsız_degrade_52"/>
    <linearGradient id="Adsız_degrade_951" data-name="Adsız degrade 95" x1="227.9" x2="227.9" xlink:href="#Adsız_degrade_95"/>
    <linearGradient id="Adsız_degrade_522" data-name="Adsız degrade 52" x1="325.7" x2="325.7" y2="150.7" xlink:href="#Adsız_degrade_52"/>
    <linearGradient id="Adsız_degrade_952" data-name="Adsız degrade 95" x1="325.7" x2="325.7" y2="148.7" xlink:href="#Adsız_degrade_95"/>
    <linearGradient id="Adsız_degrade_523" data-name="Adsız degrade 52" x1="468.1" y1="267.8" x2="468.1" y2="151.1" xlink:href="#Adsız_degrade_52"/>
    <linearGradient id="Adsız_degrade_524" data-name="Adsız degrade 52" x1="610" y1="267.8" x2="610" y2="150.9" xlink:href="#Adsız_degrade_52"/>
    <linearGradient id="Adsız_degrade_57" data-name="Adsız degrade 57" x1="759.2" y1="270.9" x2="759.2" y2="154.2" gradientUnits="userSpaceOnUse">
      <stop offset="0" stop-color="#c39532"/>
      <stop offset=".2" stop-color="#fad66f"/>
      <stop offset=".5" stop-color="#c39532"/>
      <stop offset=".8" stop-color="#fad66f"/>
      <stop offset="1" stop-color="#c39532" stop-opacity="1"/>
    </linearGradient>
    <linearGradient id="Adsız_degrade_525" data-name="Adsız degrade 52" x1="903.4" y1="267.8" x2="903.4" y2="150.9" xlink:href="#Adsız_degrade_52"/>
    <linearGradient id="Adsız_degrade_99" data-name="Adsız degrade 99" x1="606" y1="348.8" x2="606" y2="300.5" gradientUnits="userSpaceOnUse">
      <stop offset="0" stop-color="#cb9e42"/>
      <stop offset="0" stop-color="#d7ae51"/>
      <stop offset=".1" stop-color="#e5c063"/>
      <stop offset=".2" stop-color="#eecc6e"/>
      <stop offset=".2" stop-color="#f1d072"/>
      <stop offset=".5" stop-color="#cb9e42"/>
      <stop offset=".8" stop-color="#f1d072"/>
      <stop offset="1" stop-color="#cb9e42"/>
    </linearGradient>
    <linearGradient id="Adsız_degrade_124" data-name="Adsız degrade 124" x1="445.7" y1="349" x2="445.7" y2="300.7" gradientUnits="userSpaceOnUse">
      <stop offset="0" stop-color="#cb9e42"/>
      <stop offset="0" stop-color="#d7ae51"/>
      <stop offset=".1" stop-color="#e5c063"/>
      <stop offset=".2" stop-color="#eecc6e"/>
      <stop offset=".2" stop-color="#f1d072"/>
      <stop offset=".5" stop-color="#cb9e42"/>
      <stop offset=".8" stop-color="#f1d072"/>
      <stop offset="1" stop-color="#cb9e42"/>
    </linearGradient>
    <linearGradient id="Adsız_degrade_60" data-name="Adsız degrade 60" x1="555.2" y1="348.4" x2="555.2" y2="301.3" gradientUnits="userSpaceOnUse">
      <stop offset="0" stop-color="#cb9e42"/>
      <stop offset=".2" stop-color="#f1d072"/>
      <stop offset=".5" stop-color="#cb9e42"/>
      <stop offset=".8" stop-color="#f1d072"/>
      <stop offset="1" stop-color="#cb9e42"/>
    </linearGradient>
    <linearGradient id="Adsız_degrade_93" data-name="Adsız degrade 93" x1="500" y1="350.1" x2="500" y2="299.2" gradientUnits="userSpaceOnUse">
      <stop offset="0" stop-color="#cb9e42"/>
      <stop offset=".2" stop-color="#f1d072"/>
      <stop offset=".5" stop-color="#cb9e42"/>
      <stop offset=".8" stop-color="#f1d072"/>
      <stop offset="1" stop-color="#cb9e42"/>
    </linearGradient>
    <linearGradient id="Adsız_degrade_7" data-name="Adsız degrade 7" x1="100.4" y1="325" x2="409.5" y2="325" gradientUnits="userSpaceOnUse">
      <stop offset="0" stop-color="#c39532"/>
      <stop offset=".7" stop-color="#eac35d"/>
      <stop offset="1" stop-color="#fad66f"/>
    </linearGradient>
    <linearGradient id="Adsız_degrade_71" data-name="Adsız degrade 7" x1="875.7" y1="246.7" x2="719.2" y2="403.3" xlink:href="#Adsız_degrade_7"/>
  </defs>
  <path class="st5" d="M107.9,267.5l-67.7-116.9h27.1l50.7,87.8,50.7-87.8h27.1l-67.7,116.9h-20.1Z"/>
  <path class="st7" d="M216.2,267.5v-116.9h23.2v116.9h-23.2Z"/>
  <path class="st6" d="M267.2,267.5v-116.7h93.4c4.3,0,8.3,1.1,11.8,3.2,3.5,2.1,6.4,5,8.5,8.5,2.2,3.6,3.2,7.5,3.2,11.7v30.9c0,4.2-1.1,8.1-3.2,11.6-2.2,3.5-5,6.3-8.5,8.4-3.5,2.1-7.4,3.2-11.8,3.2l-70,.2v39.1h-23.4ZM291.6,204.6h67.9c.3,0,.6,0,.7-.2s.2-.4.2-.6v-28.7c0-.3,0-.6-.2-.7s-.4-.2-.7-.2h-67.9c-.3,0-.6,0-.7.2s-.2.4-.2.7v28.7c0,.2,0,.4.2.6s.4.2.7.2Z"/>
  <path class="st9" d="M409.7,267.8v-116.7h93.4c4.3,0,8.3,1.1,11.8,3.2,3.5,2.1,6.4,5,8.5,8.5,2.2,3.6,3.2,7.5,3.2,11.7v30.9c0,4.2-1.1,8.1-3.2,11.6-2.2,3.5-5,6.3-8.5,8.4-3.5,2.1-7.4,3.2-11.8,3.2l-70,.2v39.1h-23.4ZM434,205h67.9c.3,0,.6,0,.7-.2s.2-.4.2-.6v-28.7c0-.3,0-.6-.2-.7s-.4-.2-.7-.2h-67.9c-.3,0-.6,0-.7.2s-.2.4-.2.7v28.7c0,.2,0,.4.2.6s.4.2.7.2Z"/>
  <path class="st11" d="M551.6,174.3c0-4.3,1.1-8.3,3.2-11.8,2.1-3.5,4.9-6.3,8.4-8.4,3.5-2.1,7.4-3.2,11.8-3.2h70c4.3,0,8.3,1.1,11.8,3.2,3.5,2.1,6.4,4.9,8.5,8.4,2.2,3.5,3.2,7.4,3.2,11.8v93.5h-23.7v-38.5h-69.8v38.5h-23.4v-93.5ZM644.8,206v-30.5c0-.3,0-.6-.2-.7s-.4-.2-.7-.2h-67.9c-.3,0-.6,0-.7.2s-.2.4-.2.7v30.5h69.8Z"/>
  <path class="st4" d="M805.9,228.5c3.5-2.1,6.4-4.9,8.5-8.4,2.2-3.5,3.2-7.4,3.2-11.6v-30.9c0-4.2-1.1-8.1-3.2-11.7-2.2-3.6-5-6.4-8.5-8.5-3.5-2.1-7.4-3.2-11.8-3.2h-93.4v116.7h23.4v-39.1h35.6c0,0,32.9,39.1,32.9,39.1h24.7v-7.3l-26.9-32h3.7c4.3,0,8.3-1.1,11.8-3.2ZM794,207.3c0,.2,0,.4-.2.6s-.4.2-.7.2h-67.9c-.3,0-.6,0-.7-.2s-.2-.4-.2-.6v-28.7c0-.3,0-.6.2-.7s.4-.2.7-.2h67.9c.3,0,.6,0,.7.2s.2.4.2.7v28.7Z"/>
  <path class="st10" d="M847.1,267.8v-116.9h23.5v46.6h25.2l39-46.6h25v7.5l-42.9,51,42.9,51v7.5h-25l-39-46.6h-25.2v46.6h-23.5Z"/>
  <path class="st3" d="M606,348.8l-1-1.8c-3.4-6.3-8-11.1-12-15.3-5.2-5.5-9.7-10.2-9.7-16.4s1.3-7.7,3.8-10.5c2.4-2.8,5.6-4.4,9.1-4.4s5.8,1.3,8.2,3.8c.7.7,1.2,1.4,1.7,2.1.4-.6,1-1.3,1.6-2.1,2.3-2.5,5.2-3.8,8.3-3.8s6.7,1.5,9.1,4.4c2.4,2.8,3.8,6.5,3.8,10.5,0,6.2-4.5,10.9-9.7,16.4-4,4.2-8.6,9-12,15.3l-1,1.8ZM600.4,317.2c-2.8,0-1,0-3,2.4-2,2.3,5.7-4.2,5.7-.9s-5.1,4.2-3.4,6.7c1.6,2.4-7.6,1.9-5.1,4.5,3.8,3.9-7.6-20.5-4.1-14.7,3.4-5.8,4.7,19.8,8.5,15.8,2.5-2.6-1.8-2-.2-4.4,1.7-2.5-4.5.5-4.5-1.8,0-3.3.8-3.4-1.2-5.7-2-2.3,6.4-2.8,3.6-2.8s14.6-12.1,12.6-10.1c-1.5,1.5-2.2,3.1-2.2,3.1l-1,34.6-13.1-16.1s1.9-7.8.4-9.4c-1.9-2,9.5-1.3,7-1.3Z"/>
  <path class="st0" d="M453.6,349h-16.1c-.8,0-1.5-.5-1.7-1.3-.2-.8.1-1.5.8-1.9,1.5-.8,2.8-2.3,3.8-4.3.8-1.6,1.5-3.5,1.9-5.7s0-.1-.1,0c-1.6.8-3.3,1.2-5,1.2-3,0-5.8-1.2-7.9-3.3-2.1-2.1-3.3-4.9-3.3-7.9,0-4.7,3.9-8.2,8.3-12.2,3.4-3.1,7.2-6.5,10.1-11.1l1.1-1.7s0,0,.1,0l1.1,1.7c2.9,4.6,6.7,8,10.1,11.1,4.5,4,8.3,7.5,8.3,12.2s-1.2,5.8-3.3,7.9c-2.1,2.1-4.9,3.3-7.9,3.3s-3.6-.4-5.2-1.3-.1,0-.1,0c.4,2.2,1.1,4.1,1.9,5.7,1,2,2.3,3.5,3.9,4.3.7.4,1,1.2.8,1.9-.2.8-.9,1.3-1.7,1.3ZM447.9,338.1l2.9,7.9c0,0,0,.1-.1,0-2.4-2.5-4.1-6.5-4.8-11.5-.1-.8.3-1.6,1-2,.7-.4,1.6-.4,2.2,0,1.5,1,3.2,1.6,5,1.6,4.7,0-21.9,3.3-21.9-1.5s2.3,2.3-1.9-1.5c-3.1-2.8,5.8-1.4,3.1-5.4,0,0,.5.2.4.2-2.7,3.8,2.7-4.2-.4-1.4-4.2,3.8,1.1-4.5,1.1-1s-1.9,10.4,2.8,10.4,3.4-.5,4.8-1.5c.7-.5,1.5-.5,2.2,0,.7.4,3.6-17.3,3.5-16.5-.8,5.1,2.5,19.2,0,21.8s0,0,0,0Z"/>
  <path class="st1" d="M563.1,348.4h-16.1c-.8,0-1.5-.5-1.7-1.3-.2-.8.1-1.5.8-1.9h0c1.5-.8,2.8-2.3,3.8-4.3.8-1.6,1.5-3.6,1.9-5.8-1.6.8-3.3,1.3-5.2,1.3-3,0-5.8-1.2-7.9-3.3s-3.3-4.9-3.3-7.9.7-4.6,2.1-6.6c1.1-1.5,2.6-2.9,4.4-4,0-.1,0-.2,0-.3,0-3.5,1.4-6.7,3.8-9.2,2.5-2.5,5.7-3.8,9.2-3.8,0,0,0,0,0,0,3.5,0,6.7,1.3,9.2,3.7,2.5,2.4,3.8,5.7,3.9,9.1,0,.2,0,.4,0,.6,1.9,1.1,3.3,2.4,4.4,3.9,1.4,1.9,2.1,4.1,2.1,6.5s-1.2,5.8-3.3,7.9c-2.1,2.1-4.9,3.3-7.9,3.3s-3.7-.5-5.3-1.3c.4,2.2,1.1,4.2,1.9,5.9,1,2,2.3,3.5,3.8,4.3.7.4,1,1.2.8,1.9-.2.8-.9,1.3-1.7,1.3ZM557.3,338.7l3.1,7.1c-2.5-2.5-4.3-6.5-5.1-11.6-.1-.8.3-1.6,1-2,.7-.4,1.6-.4,2.3,0h0c1.4,1,3.2,1.6,4.9,1.6,4.7,0-22.9-4.2-22.9-9s23.3-6,22.3-7.4,3.3-.6,3.2-.6l-14.1,5.1-2.2.9c0-.4-1.4,2.5-1.5,2.1,0-2.8.9,3.5-1,1.5-2-1.9,14.9,7.4,12.2,7.4s-4.4-.4-4.5-.4c-2.8,0-.1-14.2-2.1-12.3-2,2-4.2-2.5-4.2.3s-3.2,3.8-3.8-6.2l19.8,6-.6,11.1c-2.7,1.4,2.1-4.9,2.1-.3s-24,1.7-19.3,1.7,3.4-.5,4.8-1.5c.7-.5,1.6-.5,2.2,0,.7.4.1,1.9.9,2,2,.3,5,2,2.4,4.5ZM557,334.3s0,0,0,0c0,0,0,0,0,0h0Z"/>
  <path class="st2" d="M500,350.1l-1.2-2.7s-1.5-3.4-4.8-7.7c-1.9-2.5-4-4.9-6.3-7-2.8-2.7-5.9-5-9.1-6.9l-1.9-1.1,1.9-1.1c3.2-1.9,6.3-4.2,9.1-6.9,2.3-2.1,4.4-4.5,6.3-7,3.2-4.3,4.8-7.7,4.8-7.7l1.2-2.7,1.2,2.7s1.5,3.4,4.8,7.7c1.9,2.5,4,4.9,6.3,7,2.8,2.7,5.9,5,9.1,6.9l1.9,1.1-1.9,1.1c-3.2,1.9-6.3,4.2-9.1,6.9-2.3,2.1-4.4,4.5-6.3,7-3.2,4.3-4.8,7.7-4.8,7.7l-1.2,2.7ZM509.9,323.8c2.7,1.8-22.8,4.7-20.3,7,2.4,2.3,4.6,4.7,6.6,7.4,1.6,2.1,5,2.1,5.8,3.5s-1.9,2-2,1.8c-.7-1.3-6.5-2.8-5-4.9,2-2.7-7.4-3.2-5-5.5,2.4-2.3-4-.5-1.3-2.3-2.7-1.8,24.1-10.2,21.6-12.5-2.4-2.3-4.6-4.7-6.6-7.4-1.7-2.3,14.2,10.8,11.5,13.2-.8,1.5,3.7-1.9,2,.5-2,2.7-5.2-4.8-7.5-2.6-2.4,2.3,2.9-.1.1,1.6Z"/>
  <line class="st12" x1="100.4" y1="325" x2="409.5" y2="325"/>
  <line class="st8" x1="642.9" y1="325" x2="952" y2="325"/>
</svg>